    <svg width="75" height="75" viewBox="0 0 75 75" fill="none" xmlns="http://www.w3.org/2000/svg">
      <g clip-path="url(#clip0_516_51)">
        <path d="M57.4219 0H17.5781C7.86999 0 0 7.86999 0 17.5781V57.4219C0 67.13 7.86999 75 17.5781 75H57.4219C67.13 75 75 67.13 75 57.4219V17.5781C75 7.86999 67.13 0 57.4219 0Z" fill="#F4F2ED" />
        <path d="M24.8276 32.8011C24.8276 33.5142 24.9047 34.0922 25.0394 34.5164C25.2108 34.9935 25.417 35.4574 25.6564 35.9042C25.7528 36.0583 25.7912 36.2124 25.7912 36.3475C25.7912 36.5402 25.6755 36.733 25.425 36.9255L24.2106 37.7353C24.0372 37.8507 23.8638 37.9087 23.7097 37.9087C23.5169 37.9087 23.3241 37.8123 23.1313 37.6389C22.8717 37.3598 22.6394 37.0564 22.4376 36.733C22.2222 36.3626 22.0228 35.9832 21.8399 35.5957C20.3367 37.369 18.4476 38.2556 16.1733 38.2556C14.5544 38.2556 13.263 37.793 12.3184 36.8678C11.3742 35.9426 10.8923 34.7092 10.8923 33.1673C10.8923 31.5287 11.4706 30.1989 12.6463 29.1967C13.822 28.1944 15.3832 27.6932 17.3683 27.6932C18.0237 27.6932 18.6984 27.7512 19.4115 27.8476C20.1246 27.9439 20.857 28.098 21.6281 28.2715V26.8644C21.6281 25.3995 21.3196 24.3779 20.7223 23.7806C20.1053 23.1829 19.0646 22.894 17.5805 22.894C16.9057 22.894 16.212 22.9711 15.4989 23.1445C14.7855 23.318 14.0918 23.5301 13.4171 23.7999C13.198 23.898 12.9727 23.9816 12.7427 24.0504C12.6079 24.0891 12.5112 24.1084 12.4342 24.1084C12.1646 24.1084 12.0293 23.9156 12.0293 23.5107V22.5662C12.0293 22.258 12.068 22.0266 12.1643 21.8918C12.2607 21.757 12.4342 21.622 12.704 21.4869C13.3787 21.14 14.1882 20.8512 15.1327 20.6197C16.0769 20.3689 17.0792 20.2535 18.1394 20.2535C20.4331 20.2535 22.1098 20.7738 23.1893 21.8145C24.2493 22.8554 24.789 24.4359 24.789 26.5562V32.8011H24.8276ZM17.0024 35.7308C17.6382 35.7308 18.2935 35.615 18.9876 35.3836C19.6813 35.1524 20.298 34.7282 20.8186 34.1502C21.1268 33.784 21.3583 33.3791 21.4737 32.9165C21.5894 32.4539 21.6665 31.8949 21.6665 31.2398V30.4301C21.082 30.2879 20.4901 30.1786 19.8934 30.1025C19.2924 30.0262 18.6873 29.9876 18.0814 29.9868C16.79 29.9868 15.8458 30.2376 15.2098 30.7579C14.5737 31.2782 14.2652 32.0106 14.2652 32.9745C14.2652 33.8804 14.4967 34.5548 14.9783 35.0174C15.4412 35.4993 16.1159 35.7308 17.0024 35.7308ZM32.4794 37.8123C32.1325 37.8123 31.9011 37.7543 31.747 37.6195C31.5929 37.5038 31.4578 37.234 31.3424 36.8678L26.8131 21.9688C26.6971 21.5833 26.6393 21.3328 26.6393 21.1978C26.6393 20.8896 26.7934 20.7158 27.1019 20.7158H28.9907C29.3569 20.7158 29.6077 20.7738 29.7425 20.9086C29.8966 21.0243 30.0123 21.2941 30.128 21.6604L33.3659 34.42L36.3729 21.6604C36.4693 21.2748 36.5848 21.0246 36.7391 20.9086C36.8932 20.7932 37.1631 20.7161 37.5099 20.7161H39.0518C39.4181 20.7161 39.6688 20.7738 39.8229 20.9086C39.977 21.0243 40.1121 21.2941 40.1891 21.6604L43.2346 34.5741L46.5688 21.6604C46.6846 21.2748 46.8196 21.0246 46.9544 20.9086C47.1085 20.7932 47.3593 20.7161 47.7061 20.7161H49.4985C49.807 20.7161 49.9805 20.8702 49.9805 21.1978C49.9805 21.2944 49.9611 21.3905 49.9418 21.5062C49.9227 21.622 49.8841 21.7758 49.807 21.9882L45.162 36.8871C45.0463 37.2727 44.9112 37.5231 44.7571 37.6389C44.603 37.7543 44.3522 37.8316 44.0247 37.8316H42.3671C42.0009 37.8316 41.7504 37.7736 41.5963 37.6389C41.4419 37.5038 41.3071 37.2533 41.2301 36.8678L38.2424 24.4359L35.2743 36.8484C35.1779 37.234 35.0622 37.4845 34.9081 37.6195C34.7537 37.7543 34.4839 37.8123 34.137 37.8123H32.4794ZM57.247 38.3326C56.2447 38.3326 55.2425 38.2169 54.2786 37.9857C53.315 37.7543 52.5633 37.5038 52.062 37.2146C51.7538 37.0412 51.5417 36.8484 51.4646 36.675C51.3896 36.5049 51.3502 36.3213 51.3489 36.1354V35.1524C51.3489 34.7476 51.503 34.5548 51.7922 34.5548C51.9079 34.5548 52.0236 34.5741 52.1391 34.6128C52.2548 34.6512 52.4282 34.7282 52.621 34.8056C53.3018 35.1049 54.0126 35.3309 54.7412 35.48C55.4961 35.6334 56.2645 35.7109 57.0349 35.7114C58.2492 35.7114 59.1934 35.4993 59.8488 35.0754C60.5042 34.6512 60.8511 34.0345 60.8511 33.2443C60.8511 32.7047 60.6776 32.2611 60.3307 31.8949C59.9839 31.5287 59.3285 31.2012 58.384 30.8927L55.5893 30.0255C54.1822 29.5822 53.1413 28.9269 52.5053 28.0597C51.8692 27.2115 51.5417 26.2667 51.5417 25.2647C51.5417 24.4553 51.7151 23.7422 52.062 23.1252C52.4089 22.5085 52.8715 21.9688 53.4498 21.5449C54.0281 21.1014 54.6835 20.7738 55.4543 20.5424C56.2254 20.3109 57.0349 20.2148 57.883 20.2148C58.3069 20.2148 58.7502 20.2342 59.1744 20.2919C59.6177 20.3496 60.0223 20.4267 60.4271 20.504C60.8127 20.6004 61.1789 20.6968 61.5258 20.8125C61.8726 20.9279 62.1425 21.0437 62.3352 21.1594C62.6051 21.3135 62.7978 21.4676 62.9136 21.641C63.029 21.7954 63.087 22.0072 63.087 22.2773V23.1832C63.087 23.5878 62.9329 23.7999 62.6437 23.7999C62.4893 23.7999 62.2389 23.7229 61.9113 23.5685C60.8127 23.0675 59.579 22.817 58.2105 22.817C57.1119 22.817 56.2447 22.9904 55.6471 23.3566C55.0497 23.7229 54.7412 24.2818 54.7412 25.072C54.7412 25.6116 54.934 26.0742 55.3195 26.4404C55.7048 26.8066 56.4182 27.1729 57.4397 27.5004L60.1766 28.3676C61.5641 28.8111 62.5667 29.4278 63.1641 30.2183C63.7614 31.0084 64.0506 31.9143 64.0506 32.9165C64.0506 33.7453 63.8771 34.4971 63.5496 35.1524C63.2027 35.8078 62.7401 36.3858 62.1425 36.8484C61.5451 37.3304 60.8317 37.6772 60.0032 37.928C59.1357 38.1979 58.2299 38.3326 57.247 38.3326Z" fill="#252F3E" />
        <path fill-rule="evenodd" clip-rule="evenodd" d="M60.8897 47.7C54.5484 52.3837 45.3354 54.8701 37.4136 54.8701C26.3118 54.8701 16.3081 50.7644 8.75272 43.9415C8.15507 43.4019 8.69501 42.6694 9.40809 43.0934C17.5805 47.8348 27.6609 50.7067 38.0883 50.7067C45.1233 50.7067 52.8524 49.2419 59.9645 46.2351C61.0245 45.7532 61.9304 46.9289 60.8897 47.7Z" fill="#FF9900" />
        <path fill-rule="evenodd" clip-rule="evenodd" d="M63.5303 44.6932C62.7208 43.6523 58.1722 44.192 56.1097 44.4425C55.493 44.5198 55.3966 43.9799 55.9556 43.5753C59.579 41.0311 65.5348 41.7636 66.2288 42.6114C66.9226 43.4789 66.036 49.4347 62.6438 52.2873C62.1232 52.7306 61.6222 52.4991 61.8533 51.9211C62.6244 50.013 64.3398 45.7145 63.5303 44.6932Z" fill="#FF9900" />
      </g>
      <defs>
        <clipPath id="clip0_516_51">
          <rect width="75" height="75" fill="white" />
        </clipPath>
      </defs>
    </svg>