    <svg width="75" height="75" viewBox="0 0 75 75" fill="none" xmlns="http://www.w3.org/2000/svg">
      <path d="M70.0172 32.7281C69.1167 26.6581 66.5389 20.9602 62.5744 16.2763C58.6098 11.5925 53.416 8.10886 47.5781 6.21798C45.3549 5.51199 43.0659 5.03298 40.7461 4.7883C40.1297 4.72501 35.8899 4.6547 35.3555 4.70626C35.2149 4.70626 34.7649 4.76251 34.3617 4.79533C29.6884 5.24767 25.1661 6.69526 21.0988 9.0408C17.0315 11.3863 13.5135 14.5755 10.7813 18.3938C7.72493 22.636 5.73816 27.5534 4.98985 32.7281C4.73776 34.3056 4.63652 35.9034 4.68751 37.5C4.63384 39.0987 4.73272 40.699 4.98282 42.2789C5.88173 48.3501 8.45884 54.0494 12.4236 58.7343C16.3883 63.4191 21.583 66.9032 27.4219 68.7938C29.6761 69.508 31.9976 69.9894 34.35 70.2305C36.4439 70.3406 38.5421 70.3406 40.6359 70.2305C44.7588 69.8273 48.7695 68.6547 52.4602 66.7734C53.0227 66.4852 53.1328 66.4078 53.0555 66.3445C52.9781 66.2813 50.5992 63.0797 47.7117 59.1797L42.4641 52.0922L35.9016 42.3609C32.2828 37.0125 29.3063 32.6391 29.2805 32.6391C29.2547 32.6391 29.2289 36.9539 29.2172 42.2344C29.3845 45.5152 29.3376 48.8034 29.0766 52.0781C28.9639 52.3338 28.7636 52.5407 28.5117 52.6617C28.3055 52.7649 28.125 52.7836 27.157 52.7836H26.0484L25.7531 52.5984C25.5702 52.4835 25.4213 52.3216 25.3219 52.1297L25.1883 51.8414L25.2 38.9813L25.2211 26.1141L25.418 25.8633C25.5508 25.7071 25.7093 25.5747 25.8867 25.4719C26.1492 25.3453 26.2524 25.3313 27.3609 25.3313C28.6711 25.3313 28.8891 25.3828 29.2359 25.7555C29.332 25.8586 32.8922 31.2188 37.1508 37.6781C41.4094 44.1375 47.2289 52.957 50.0977 57.2859L55.2891 65.1563L55.5516 64.9828C58.0535 63.3193 60.3213 61.3281 62.2945 59.0625C66.4287 54.3313 69.1102 48.5078 70.0172 42.2906C70.268 40.7068 70.3669 39.1027 70.3125 37.5C70.3658 35.9036 70.2669 34.3058 70.0172 32.7281ZM49.4836 37.0758L49.4649 48.6094L47.4305 45.4922L45.3914 42.375V33.9844C45.3914 28.5656 45.4172 25.5188 45.4547 25.3711C45.5004 25.2004 45.5803 25.0407 45.6895 24.9018C45.7986 24.7628 45.9348 24.6474 46.0899 24.5625C46.3524 24.4266 46.4484 24.4149 47.4563 24.4149C48.3938 24.4149 48.5719 24.4266 48.7828 24.5438C48.9362 24.6201 49.0727 24.7264 49.1842 24.8564C49.2957 24.9865 49.38 25.1376 49.432 25.3008C49.4836 25.4742 49.4953 29.0391 49.4836 37.0758Z" fill="black" />
    </svg>