    <svg width="75" height="80" viewBox="0 0 75 80" fill="none" xmlns="http://www.w3.org/2000/svg">
      <g filter="url(#filter0_d_516_44)">
        <path d="M16.29 15.585C18.39 17.29 19.175 17.16 23.12 16.895L60.285 14.665C61.075 14.665 60.42 13.88 60.155 13.75L53.98 9.285C52.8 8.365 51.225 7.315 48.205 7.58L12.215 10.205C10.905 10.335 10.64 10.99 11.165 11.515L16.29 15.585ZM18.52 24.245V63.35C18.52 65.45 19.57 66.24 21.935 66.11L62.785 63.745C65.145 63.615 65.41 62.17 65.41 60.465V21.62C65.41 19.92 64.755 18.995 63.31 19.125L20.62 21.62C19.045 21.75 18.52 22.54 18.52 24.245ZM58.845 26.345C59.105 27.525 58.845 28.705 57.66 28.84L55.69 29.23V58.1C53.985 59.02 52.405 59.55 51.09 59.55C48.99 59.55 48.465 58.89 46.89 56.92L34.015 36.71V56.265L38.09 57.185C38.09 57.185 38.09 59.545 34.805 59.545L25.745 60.07C25.48 59.545 25.745 58.235 26.665 57.97L29.025 57.32V31.46L25.75 31.2C25.485 30.02 26.14 28.315 27.98 28.18L37.7 27.53L51.1 48V29.89L47.685 29.495C47.42 28.05 48.47 27 49.785 26.87L58.85 26.345H58.845ZM9.195 6.66L46.63 3.905C51.225 3.505 52.405 3.775 55.295 5.875L67.245 14.275C69.22 15.715 69.875 16.11 69.875 17.685V63.745C69.875 66.635 68.825 68.345 65.145 68.6L21.675 71.225C18.915 71.36 17.6 70.965 16.155 69.125L7.355 57.71C5.78 55.61 5.125 54.035 5.125 52.195V11.25C5.125 8.89 6.175 6.92 9.195 6.66Z" fill="#334155" />
      </g>
      <defs>
        <filter id="filter0_d_516_44" x="-4" y="0" width="83" height="83" filterUnits="userSpaceOnUse" color-interpolation-filters="sRGB">
          <feFlood flood-opacity="0" result="BackgroundImageFix" />
          <feColorMatrix in="SourceAlpha" type="matrix" values="0 0 0 0 0 0 0 0 0 0 0 0 0 0 0 0 0 0 127 0" result="hardAlpha" />
          <feOffset dy="4" />
          <feGaussianBlur stdDeviation="2" />
          <feComposite in2="hardAlpha" operator="out" />
          <feColorMatrix type="matrix" values="0 0 0 0 0 0 0 0 0 0 0 0 0 0 0 0 0 0 0.25 0" />
          <feBlend mode="normal" in2="BackgroundImageFix" result="effect1_dropShadow_516_44" />
          <feBlend mode="normal" in="SourceGraphic" in2="effect1_dropShadow_516_44" result="shape" />
        </filter>
      </defs>
    </svg>