    <svg width="75" height="75" viewBox="0 0 75 75" fill="none" xmlns="http://www.w3.org/2000/svg">
      <path d="M37.9166 30.9883C41.5096 30.9883 44.4399 34.2638 44.4399 38.3581C44.4399 42.2574 41.5096 45.5718 37.9166 45.5718C34.3236 45.5718 31.3934 42.2574 31.3934 38.3581C31.3934 34.2638 34.3236 30.9883 37.9166 30.9883ZM21.7655 69.5527C23.9631 71.0345 28.7771 68.7729 34.3236 62.9238C32.5097 60.6232 30.7306 58.1277 29.0562 55.5151C26.2451 55.2144 23.4504 54.7458 20.6841 54.1114C18.905 62.4559 19.5678 68.188 21.7655 69.5527ZM24.2422 47.1706L23.2306 45.1819C22.8469 46.3127 22.4631 47.4435 22.219 48.5353C23.1608 48.7693 24.2073 48.9642 25.2887 49.1592L24.2422 47.1706ZM47.0562 44.2071L49.8817 38.3581L47.0562 32.5091C46.0096 30.4424 44.8934 28.6097 43.8817 26.777C41.998 26.6601 40.0096 26.6601 37.9166 26.6601C35.8236 26.6601 33.8352 26.6601 31.9515 26.777C30.9399 28.6097 29.8236 30.4424 28.7771 32.5091L25.9515 38.3581L28.7771 44.2071C29.8236 46.2737 30.9399 48.1064 31.9515 49.9391C33.8352 50.0561 35.8236 50.0561 37.9166 50.0561C40.0096 50.0561 41.998 50.0561 43.8817 49.9391C44.8934 48.1064 46.0096 46.2737 47.0562 44.2071ZM37.9166 18.0036C37.2538 18.8614 36.5562 19.7583 35.8585 20.8111H39.9748C39.2771 19.7583 38.5794 18.8614 37.9166 18.0036ZM37.9166 58.7126C38.5794 57.8547 39.2771 56.9579 39.9748 55.9051H35.8585C36.5562 56.9579 37.2538 57.8547 37.9166 58.7126ZM54.0329 7.16341C51.8701 5.68166 47.0562 7.94328 41.5096 13.7923C43.3236 16.0929 45.1027 18.5885 46.7771 21.201C49.6376 21.513 52.4631 21.9809 55.1492 22.6048C56.9283 14.2602 56.2655 8.52818 54.0329 7.16341ZM51.591 29.5456L52.6027 31.5342C52.9864 30.4034 53.3701 29.2726 53.6143 28.1808C52.6724 27.9468 51.6259 27.7519 50.5445 27.5569L51.591 29.5456ZM56.6492 2.05529C61.7771 5.33072 62.3352 13.9482 60.1724 24.0085C69.0329 26.933 75.4166 31.7682 75.4166 38.3581C75.4166 44.9479 69.0329 49.7831 60.1724 52.7076C62.3352 62.7679 61.7771 71.3854 56.6492 74.6608C51.5562 77.9363 44.6143 74.1929 37.9166 67.0571C31.219 74.1929 24.2771 77.9363 19.1492 74.6608C14.0562 71.3854 13.498 62.7679 15.6608 52.7076C6.80035 49.7831 0.416626 44.9479 0.416626 38.3581C0.416626 31.7682 6.80035 26.933 15.6608 24.0085C13.498 13.9482 14.0562 5.33072 19.1492 2.05529C24.2771 -1.22015 31.219 2.52321 37.9166 9.65898C44.6143 2.52321 51.5562 -1.22015 56.6492 2.05529ZM55.6376 38.3581C56.8236 41.2826 57.8701 44.2071 58.7422 47.1706C66.0678 44.714 70.1841 41.2046 70.1841 38.3581C70.1841 35.5116 66.0678 32.0022 58.7422 29.5456C57.8701 32.5091 56.8236 35.4336 55.6376 38.3581ZM20.1957 38.3581C19.0096 35.4336 17.9631 32.5091 17.091 29.5456C9.76546 32.0022 5.64918 35.5116 5.64918 38.3581C5.64918 41.2046 9.76546 44.714 17.091 47.1706C17.9631 44.2071 19.0096 41.2826 20.1957 38.3581ZM51.591 47.1706L50.5445 49.1592C51.6259 48.9642 52.6724 48.7693 53.6143 48.5353C53.3701 47.4435 52.9864 46.3127 52.6027 45.1819L51.591 47.1706ZM41.5096 62.9238C47.0562 68.7729 51.8701 71.0345 54.0329 69.5527C56.2655 68.188 56.9283 62.4559 55.1492 54.1114C52.4631 54.7353 49.6376 55.2032 46.7771 55.5151C45.1027 58.1277 43.3236 60.6232 41.5096 62.9238ZM24.2422 29.5456L25.2887 27.5569C24.2073 27.7519 23.1608 27.9468 22.219 28.1808C22.4631 29.2726 22.8469 30.4034 23.2306 31.5342L24.2422 29.5456ZM34.3236 13.7923C28.7771 7.94328 23.9631 5.68166 21.7655 7.16341C19.5678 8.52818 18.905 14.2602 20.6841 22.6048C23.4504 21.9703 26.2451 21.5017 29.0562 21.201C30.7306 18.5885 32.5097 16.0929 34.3236 13.7923Z" fill="#00D8FF" />
    </svg>