    <svg width="75" height="75" viewBox="0 0 75 75" fill="none" xmlns="http://www.w3.org/2000/svg">
      <g clip-path="url(#clip0_514_16)">
        <path d="M46.283 46.4632L44.8446 49.2437C44.6316 49.6552 44.325 49.9969 43.9556 50.2346C43.5863 50.4722 43.1672 50.5973 42.7405 50.5973H31.7198C31.2932 50.5973 30.8741 50.4722 30.5047 50.2346C30.1354 49.9969 29.8287 49.6552 29.6158 49.2437L28.1771 46.4632H46.283ZM50.3104 38.6795L47.7739 43.5818H26.6865L24.15 38.6795H50.3104ZM47.8671 31.0679L50.3145 35.7981H24.1459L26.5933 31.0679H47.8671ZM42.7402 23.8725C43.1669 23.8724 43.5861 23.9975 43.9555 24.2351C44.3249 24.4728 44.6316 24.8146 44.8446 25.2261L46.3762 28.1866H28.0842L29.6161 25.2261C29.829 24.8146 30.1356 24.4728 30.505 24.2352C30.8744 23.9976 31.2935 23.8725 31.7201 23.8725H42.7405H42.7402Z" fill="#00435B" />
        <path d="M15.6811 22.5822C14.4603 15.9933 14.1981 10.9396 14.9874 7.27011C15.4567 5.08761 16.3145 3.30717 17.6193 2.02239C18.9969 0.666196 20.7382 0.000652159 22.6952 0.000652159C25.9231 0.000652159 29.3168 1.63924 32.9431 4.75174C34.4225 6.02152 35.9576 7.55185 37.5519 9.3437C37.6791 9.16207 37.8223 8.99054 37.9823 8.83174C42.4898 4.36109 46.2849 1.58283 49.5309 0.511957C51.4609 -0.125217 53.2729 -0.18587 54.9229 0.432391C56.6648 1.08457 58.0526 2.43359 59.032 4.32261C60.6479 7.44033 61.0739 11.537 60.4716 16.5955C60.2261 18.6574 59.8063 20.9032 59.213 23.3367C59.4368 23.3667 59.6612 23.4222 59.8833 23.504C65.6022 25.6138 69.6522 27.8821 72.104 30.4748C73.5629 32.0172 74.5153 33.7343 74.8599 35.6354C75.2231 37.6418 74.8686 39.6541 73.8907 41.5418C72.2777 44.6553 69.3117 47.1104 65.0866 49.0552C63.3904 49.8362 61.4706 50.5435 59.3258 51.1797C59.4237 51.4255 59.4998 51.6867 59.5505 51.9607C60.7713 58.5496 61.0332 63.6033 60.2442 67.2727C59.7749 69.4552 58.9168 71.2357 57.612 72.5204C56.2348 73.8766 54.4931 74.5422 52.5364 74.5422C49.3082 74.5422 45.9149 72.9036 42.2886 69.7911C40.7933 68.5076 39.2412 66.9584 37.6284 65.1417C37.4586 65.4371 37.2532 65.705 37.0179 65.938C32.5103 70.4094 28.7153 73.187 25.4693 74.2582C23.5392 74.8953 21.7273 74.956 20.0773 74.3377C18.3353 73.6855 16.9476 72.3365 15.9682 70.4475C14.3522 67.3298 13.9263 63.2332 14.5286 58.1746C14.7832 56.0384 15.2247 53.7042 15.8522 51.1686C15.6021 51.1403 15.3555 51.0816 15.1169 50.9935C9.39794 48.8837 5.34802 46.6154 2.89622 44.0227C1.43726 42.4803 0.484843 40.7632 0.140318 38.8621C-0.222955 36.8557 0.13153 34.843 1.10944 32.9553C2.72249 29.8422 5.68844 27.3867 9.91355 25.4423C11.6605 24.6378 13.6441 23.912 15.8666 23.2611C15.7861 23.0416 15.724 22.8143 15.6811 22.5822Z" fill="#002B3B" />
        <path d="M55.5603 52.6086C55.8332 52.5547 56.1143 52.6199 56.3453 52.7905C56.5763 52.9611 56.7395 53.224 56.801 53.5249L56.8077 53.5614L56.8683 53.912C58.8341 65.415 57.4493 71.1669 52.7141 71.1669C48.0815 71.1669 42.1839 66.2589 35.0215 56.443C34.8943 56.2686 34.8136 56.0579 34.7885 55.8349C34.7635 55.6119 34.7951 55.3856 34.8799 55.1817C34.9646 54.9777 35.099 54.8043 35.2679 54.6811C35.4367 54.558 35.6333 54.49 35.8351 54.4849H35.8685L36.2458 54.4878C39.2598 54.5061 42.1897 54.389 45.0359 54.137C48.3953 53.8392 51.9035 53.3299 55.5603 52.6086ZM23.0411 43.9132L23.0593 43.9474L23.2485 44.3149C24.7652 47.2497 26.3452 50.0351 27.9887 52.6715C29.9246 55.7759 32.1013 58.9187 34.5188 62.1C34.6983 62.3361 34.789 62.6401 34.7721 62.9488C34.7553 63.2575 34.6321 63.547 34.4283 63.7572L34.401 63.7842L34.1579 64.0174C26.1579 71.6469 20.9584 73.17 18.5594 68.5865C16.2107 64.1006 17.0623 55.9432 21.1137 44.1147C21.1854 43.9051 21.3085 43.7221 21.4688 43.5863C21.6292 43.4506 21.8205 43.3675 22.0211 43.3465C22.2217 43.3256 22.4236 43.3675 22.6038 43.4677C22.7841 43.5678 22.9356 43.7221 23.0411 43.9132ZM59.6196 26.939L59.6524 26.9511L59.9535 27.0665C69.8278 30.8899 73.5792 35.0915 71.208 39.6714C68.8889 44.1505 62.1467 47.4121 50.9816 49.4553C50.7792 49.4924 50.5715 49.4645 50.3829 49.375C50.1943 49.2854 50.0325 49.1378 49.9165 48.9496C49.8005 48.7614 49.7351 48.5402 49.728 48.3121C49.7208 48.084 49.7723 47.8583 49.8762 47.6615C51.4752 44.6335 52.9157 41.6211 54.1971 38.6234C55.6502 35.2239 57.0139 31.5747 58.2883 27.6766C58.3809 27.3933 58.5658 27.1591 58.8063 27.0204C59.0469 26.8818 59.3254 26.8489 59.5867 26.9283L59.6196 26.939ZM24.7403 25.0141C24.8625 25.094 24.9694 25.1999 25.0548 25.3258C25.1402 25.4517 25.2025 25.595 25.2382 25.7477C25.2738 25.9004 25.2821 26.0594 25.2625 26.2156C25.2429 26.3719 25.1959 26.5223 25.1241 26.6583C23.5245 29.686 22.0843 32.6987 20.8029 35.6964C19.3498 39.0959 17.986 42.7448 16.7117 46.6432C16.617 46.9326 16.4261 47.1706 16.1784 47.3079C15.9306 47.4451 15.645 47.4712 15.3804 47.3808L15.3476 47.3687L15.0465 47.2529C5.17216 43.4299 1.42077 39.2279 3.79201 34.6484C6.1111 30.1689 12.8533 26.9077 24.0184 24.8645C24.2675 24.8188 24.5229 24.8716 24.7403 25.0141ZM56.4406 6.18326C58.7893 10.6696 57.9377 18.827 53.8863 30.6554C53.8145 30.865 53.6915 31.048 53.5312 31.1838C53.3708 31.3195 53.1795 31.4026 52.9789 31.4236C52.7783 31.4446 52.5764 31.4026 52.3962 31.3025C52.2159 31.2023 52.0644 31.048 51.9589 30.857L51.9407 30.8227L51.7515 30.4552C50.2348 27.5204 48.6548 24.735 47.0113 22.0986C45.0754 18.9942 42.8987 15.8514 40.4812 12.6701C40.3017 12.434 40.211 12.13 40.2279 11.8213C40.2447 11.5126 40.3679 11.2231 40.5717 11.0129L40.599 10.9859L40.8421 10.7527C48.842 3.12326 54.0415 1.60011 56.4406 6.18326ZM22.6907 3.45326C27.3236 3.45326 33.2213 8.36087 40.3833 18.1767C40.5106 18.3512 40.5913 18.5619 40.6164 18.7849C40.6414 19.0078 40.6098 19.2342 40.525 19.4381C40.4403 19.6421 40.3058 19.8155 40.137 19.9387C39.9681 20.0618 39.7716 20.1298 39.5698 20.1349H39.5364L39.159 20.1323C36.1453 20.114 33.2151 20.2311 30.3693 20.4832C27.0096 20.7809 23.5014 21.2902 19.8446 22.0115C19.5717 22.0653 19.2907 22.0001 19.0597 21.8295C18.8288 21.6589 18.6657 21.396 18.6042 21.0952L18.5972 21.0584L18.5365 20.7082C16.5707 9.20478 17.9553 3.45326 22.6907 3.45326Z" fill="#FF4154" />
        <path d="M32.6061 24.0228H41.8566C42.5213 24.0228 43.1741 24.218 43.7493 24.5887C44.3244 24.9595 44.8015 25.4926 45.1323 26.1342L49.7772 35.1427C50.1055 35.7795 50.2783 36.501 50.2783 37.2352C50.2783 37.9695 50.1055 38.6909 49.7772 39.3277L45.1323 48.3362C44.8014 48.9778 44.3244 49.5109 43.7492 49.8816C43.1741 50.2523 42.5213 50.4476 41.8566 50.4476H32.6061C31.2532 50.4476 30.0037 49.6422 29.3301 48.3362L24.6858 39.3277C24.3575 38.6909 24.1847 37.9695 24.1847 37.2352C24.1847 36.501 24.3575 35.7795 24.6858 35.1427L29.3304 26.1342C29.6613 25.4926 30.1384 24.9595 30.7136 24.5887C31.2888 24.218 31.9414 24.0228 32.6061 24.0228ZM40.4466 26.7417C41.8001 26.7417 43.0505 27.5482 43.7234 28.8551L46.9624 35.1447C47.2901 35.781 47.4625 36.5017 47.4625 37.2352C47.4625 37.9687 47.2901 38.6894 46.9624 39.3258L43.7234 45.6153C43.3927 46.2574 42.9155 46.791 42.3401 47.162C41.7648 47.533 41.1116 47.7284 40.4466 47.7284H34.0161C32.6626 47.7284 31.4122 46.9223 30.7393 45.6153L27.5003 39.3258C27.1726 38.6894 27.0002 37.9687 27.0002 37.2352C27.0002 36.5017 27.1726 35.781 27.5003 35.1447L30.7393 28.8551C31.07 28.2131 31.5471 27.6795 32.1224 27.3085C32.6978 26.9375 33.3509 26.7421 34.0158 26.7421L40.4466 26.7417ZM38.927 29.7157H35.5357C34.8713 29.7156 34.2187 29.9107 33.6437 30.2811C33.0687 30.6515 32.5916 31.1842 32.2607 31.8254L30.5492 35.1408C30.2202 35.7781 30.047 36.5002 30.047 37.2352C30.047 37.9702 30.2202 38.6924 30.5492 39.3297L32.2607 42.6453C32.5916 43.2865 33.0687 43.8192 33.6437 44.1897C34.2187 44.5601 34.8713 44.7551 35.5357 44.7551H38.927C40.2793 44.7551 41.5285 43.9503 42.202 42.6453L43.9135 39.3297C44.2425 38.6924 44.4157 37.9702 44.4157 37.2352C44.4157 36.5002 44.2425 35.7781 43.9135 35.1408L42.202 31.8251C41.8711 31.1839 41.394 30.6512 40.819 30.2808C40.244 29.9104 39.5914 29.7156 38.927 29.7157ZM37.464 32.5621C38.8151 32.5621 40.0634 33.3655 40.7372 34.6686L40.9801 35.1382C41.31 35.7761 41.4836 36.4992 41.4836 37.2352C41.4836 37.9712 41.31 38.6944 40.9801 39.3323L40.7372 39.8018C40.4061 40.4422 39.9291 40.974 39.3545 41.3438C38.7798 41.7137 38.1278 41.9084 37.464 41.9084H36.9987C36.335 41.9084 35.6829 41.7137 35.1082 41.3438C34.5336 40.974 34.0566 40.4422 33.7255 39.8018L33.4826 39.3323C33.1527 38.6944 32.9791 37.9712 32.9791 37.2352C32.9791 36.4992 33.1527 35.7761 33.4826 35.1382L33.7255 34.6686C34.0566 34.0283 34.5336 33.4964 35.1082 33.1266C35.6829 32.7568 36.335 32.5621 36.9987 32.5621H37.464ZM37.2319 35.3661C36.9369 35.3659 36.647 35.4522 36.3915 35.6163C36.1359 35.7803 35.9236 36.0164 35.7759 36.3007C35.6284 36.5848 35.5508 36.9071 35.5508 37.2352C35.5508 37.5633 35.6284 37.8857 35.7759 38.1698C35.9235 38.4541 36.1357 38.6902 36.3912 38.8543C36.6467 39.0185 36.9365 39.1049 37.2315 39.1049C37.5265 39.1049 37.8163 39.0185 38.0718 38.8543C38.3273 38.6902 38.5395 38.4541 38.6871 38.1698C38.8346 37.8857 38.9122 37.5633 38.9122 37.2352C38.9122 36.9071 38.8346 36.5848 38.6871 36.3007C38.5395 36.0165 38.3274 35.7805 38.072 35.6164C37.8165 35.4524 37.5268 35.3661 37.2319 35.3661ZM23.6065 37.2352H26.6299Z" fill="#FFD94C" />
      </g>
      <defs>
        <clipPath id="clip0_514_16">
          <rect width="75" height="75" fill="white" />
        </clipPath>
      </defs>
    </svg>