    <svg width="75" height="75" viewBox="0 0 75 75" fill="none" xmlns="http://www.w3.org/2000/svg">
      <path d="M57.4219 0H17.5781C7.86999 0 0 7.86999 0 17.5781V57.4219C0 67.13 7.86999 75 17.5781 75H57.4219C67.13 75 75 67.13 75 57.4219V17.5781C75 7.86999 67.13 0 57.4219 0Z" fill="#3578E5" />
      <path d="M37.1088 0C40.6099 0 43.4456 2.83578 43.4456 6.33687C43.4456 8.94677 41.8645 11.1897 39.6058 12.1623L39.5371 12.1914V14.8608C39.5371 17.4378 41.4525 19.6316 44.0003 19.99L44.0777 20.0002L44.8428 20.1C48.9842 20.6239 52.1942 23.6011 53.0175 27.6926C53.8408 31.7841 52.0445 35.7759 48.427 37.8715C46.8074 38.8039 45.043 39.3744 43.1813 39.567L43.0881 39.5763L31.587 40.6573C30.4144 40.7655 29.3083 41.123 28.2854 41.7136C26.198 42.9194 25.7906 45.0068 26.1065 46.5535C26.4195 48.0849 27.5882 49.8281 29.9273 50.1532L30.7636 50.2625C35.8022 50.8881 39.6101 55.1572 39.6856 60.2211L39.6868 60.3749V62.853C41.9071 63.8343 43.4622 66.0632 43.4622 68.6494C43.4622 72.1504 40.6265 74.9863 37.1254 74.9863C33.6244 74.9863 30.7885 72.1504 30.7885 68.6494C30.7885 66.0478 32.3616 63.8047 34.6121 62.8323L34.6805 62.8032V60.3749C34.6805 57.7979 32.7652 55.6041 30.2173 55.2457L30.1399 55.2356L29.3748 55.1357C25.2335 54.6118 22.0233 51.6346 21.2001 47.5431C20.3685 43.4515 22.1731 39.4598 25.7907 37.3642C27.4102 36.4318 29.1745 35.8613 31.0364 35.6687L31.1295 35.6594L42.6307 34.5784C43.8033 34.4702 44.9093 34.1127 45.9322 33.5222C48.0195 32.3163 48.427 30.229 48.111 28.6822C47.7982 27.1509 46.6295 25.4076 44.2903 25.0825L43.4539 24.9732C38.4154 24.3476 34.6076 20.0785 34.532 15.0146L34.5307 14.8608V12.1248C32.3187 11.1352 30.7719 8.91481 30.7719 6.33687C30.7719 2.83578 33.6078 0 37.1088 0ZM44.7263 42.4038L48.2774 46.2956C50.92 49.2019 52.3891 52.9476 52.4183 56.8632L52.4187 56.9819H47.404C47.404 54.298 46.418 51.7281 44.631 49.7323L44.5767 49.672L38.5392 43.0524L43.3626 42.5951L43.5148 42.5781C43.8763 42.5371 44.237 42.4896 44.593 42.4277L44.7264 42.4038H44.7263ZM26.3727 18.0625C26.3727 20.7464 27.3589 23.3163 29.1458 25.3121L29.2002 25.3724L35.2543 32.0086L30.7969 32.4327L30.6644 32.4449C30.1791 32.4915 29.6945 32.5618 29.2211 32.656L29.0921 32.6823L25.5078 28.7488C22.8652 25.8507 21.396 22.0969 21.3668 18.1812L21.3664 18.0625H26.3727Z" fill="white" />
    </svg>