    <svg width="75" height="75" viewBox="0 0 75 75" fill="none" xmlns="http://www.w3.org/2000/svg">
      <path d="M51.9678 52.3794C54.7355 52.0776 56.8352 49.5644 56.7397 46.5481C56.6445 43.5322 54.2582 41.1192 51.3951 41.1192H51.2043C48.2454 41.2198 45.9549 43.8337 46.0504 46.9502C46.1459 48.4583 46.7184 49.7653 47.5774 50.6701C44.3325 57.4062 39.3696 62.3323 31.9252 66.4543C26.8668 69.2693 21.6177 70.2747 16.3686 69.5711C12.0737 68.9678 8.73325 66.9573 6.63325 63.6392C3.57934 58.7131 3.29311 53.3845 5.87006 48.0562C7.68354 44.2358 10.5464 41.4207 12.3599 40.0132C11.9782 38.7063 11.4054 36.4946 11.1192 34.8862C-2.71978 45.4424 -1.28804 59.7185 2.91137 66.4543C6.06079 71.4814 12.4554 74.5979 19.518 74.5979C21.4267 74.5979 23.3354 74.3967 25.2444 73.8943C37.4609 71.3808 46.7187 63.7398 51.9678 52.3794ZM68.7655 39.9129C61.5119 30.9651 50.8226 26.0389 38.6061 26.0389H37.0791C36.2202 24.2293 34.4067 23.0227 32.4025 23.0227H32.2115C29.2531 23.1233 26.9626 25.7371 27.0579 28.854C27.1534 31.8699 29.5393 34.2829 32.4025 34.2829H32.5932C34.6929 34.1823 36.5064 32.7747 37.2699 30.8645H38.9878C46.2414 30.8645 53.113 33.0762 59.3169 37.3994C64.0888 40.7171 67.5247 45.0403 69.4334 50.268C71.0559 54.4905 70.9604 58.6125 69.2424 62.1314C66.5703 67.4597 62.0846 70.3753 56.1672 70.3753C52.3495 70.3753 48.7229 69.1687 46.8139 68.2639C45.7642 69.2693 43.8552 70.8777 42.519 71.8835C46.6232 73.894 50.8226 75 54.831 75C63.9933 75 70.7697 69.6714 73.3466 64.3432C76.1143 58.5119 75.9233 48.4583 68.7655 39.9129ZM20.2815 54.0881C20.377 57.1044 22.7629 59.517 25.6261 59.517H25.8171C28.7758 59.4167 31.0663 56.8025 30.9707 53.686C30.8755 50.6698 28.4893 48.2571 25.6261 48.2571H25.4354C25.2444 48.2571 24.9579 48.2571 24.7674 48.3574C20.8542 41.521 19.2318 34.0816 19.8045 26.0386C20.186 20.0065 22.095 14.7785 25.4354 10.4553C28.2031 6.73548 33.5477 4.92585 37.1747 4.82556C47.2912 4.62435 51.5858 17.895 51.8723 23.2236C53.113 23.5251 55.2127 24.229 56.6445 24.7317C55.499 8.44511 45.9549 0 36.7929 0C28.2031 0 20.2815 6.53489 17.1318 16.1863C12.7416 29.0549 15.6048 41.4207 20.9495 51.1728C20.4725 51.8764 20.186 52.9821 20.2815 54.0881Z" fill="#764ABC" />
    </svg>