    <svg width="75" height="75" viewBox="0 0 75 75" fill="none" xmlns="http://www.w3.org/2000/svg">
      <g clip-path="url(#clip0_514_21)">
        <path d="M57.4219 0H17.5781C7.86999 0 0 7.86999 0 17.5781V57.4219C0 67.13 7.86999 75 17.5781 75H57.4219C67.13 75 75 67.13 75 57.4219V17.5781C75 7.86999 67.13 0 57.4219 0Z" fill="url(#paint0_linear_514_21)" />
        <path d="M3.36534 37.8161L18.1028 43.788V47.9684L0.656555 39.8851V37.4323L3.36534 37.8161ZM18.1028 32.9109L3.38673 38.9678L0.656848 39.2666V36.7925L18.1026 28.7306L18.1028 32.9109ZM70.7142 38.6692L55.5501 32.7615V28.6878L73.764 36.7497V39.2452L70.7142 38.6692ZM55.5501 43.8732L70.7569 37.8375L73.764 37.3896V39.8637L55.5501 47.947V43.8732Z" fill="white" />
        <path clipRule="evenodd" d="M51.585 17.9001C51.5007 19.2378 50.898 20.6347 51.0659 21.9352C52.1185 23.7967 54.4353 24.0935 56.3467 24.2212C57.6709 24.4579 57.6542 23.5811 57.5654 22.5961L57.5815 17.8723C55.5826 17.8796 53.5831 17.8526 51.585 17.9001ZM35.823 21.6413C32.5687 22.1938 29.2699 23.7489 26.5626 25.621C24.3835 27.317 28.4332 28.9605 29.9024 29.2354C32.8585 29.2714 35.4802 27.2774 37.422 25.2079C38.056 24.3378 38.8479 23.0057 38.0513 21.997C37.4431 21.4696 36.5587 21.5974 35.823 21.6413ZM42.7479 26.3742C40.0722 26.884 37.5263 27.9867 35.2737 29.5222C33.6222 30.0407 32.2611 31.8539 34.3075 32.7624C36.4564 34.4748 38.9469 34.0553 40.9259 32.8992C42.7383 31.822 44.6959 30.4928 45.5343 28.4648C46.3262 26.2433 44.2831 26.1609 42.7479 26.3742ZM50.3385 34.9825C49.8401 37.0638 47.7442 38.0101 46.6292 39.6592C45.7175 40.8621 46.1396 42.2792 47.1776 43.2261C47.683 44.274 48.5689 44.8597 49.519 43.9494C51.9659 42.2859 52.6426 39.0457 52.541 36.2382C52.7217 35.0786 51.3914 36.1269 50.3385 34.9825ZM41.027 38.8916C37.7777 39.4477 34.5278 41.0309 31.8193 42.9C29.7167 44.5937 33.6767 46.1751 35.158 46.4259C38.1688 46.4303 40.8545 44.4899 42.7582 42.2862C43.4203 41.4111 44.2227 39.7116 42.9117 39.0158C42.3255 38.7674 41.6449 38.8403 41.027 38.8916Z" fill="#B956A6" />
        <path clipRule="evenodd" d="M26.5626 25.621C24.0636 26.6209 21.653 27.835 19.2724 29.1064C18.83 30.7515 19.1848 32.7885 19.0702 34.5923C19.0614 42.0091 19.0655 49.4262 19.0644 56.843H24.578C25.6913 55.7947 27.0859 55.0274 28.2952 54.0756C32.9517 50.736 37.6067 47.3836 42.257 44.0534C42.5991 44.2072 42.38 42.0404 41.6294 43.5454C39.8508 45.2191 37.4901 46.5958 34.9913 46.4613C33.5734 45.9949 31.2876 45.2036 31.2733 43.466C32.2714 42.2909 29.4317 44.0813 28.6547 44.3376C26.1287 45.5505 23.6625 46.9049 21.1313 48.0952C21.7395 47.4419 22.8774 46.8328 23.6842 46.1848C29.4478 42.0475 35.2099 37.894 40.9872 33.76C42.0985 32.9798 43.1719 32.1287 44.3174 31.3995C44.422 31.8035 44.6183 29.468 43.7663 30.9059C42.0296 32.6273 39.687 33.9088 37.2164 33.9264C35.8269 33.5045 32.8673 32.4958 33.5262 30.7017C33.8476 30.0721 30.5414 32.0438 32.0022 30.9319C33.557 29.7958 35.124 28.6799 36.6908 27.5555C37.4821 27.496 37.3137 24.5566 36.2385 26.4527C34.4323 28.0397 32.0593 29.4917 29.5717 29.1475C28.1742 28.7452 26.4976 27.9662 25.9896 26.5049C25.8214 26.1539 26.9306 25.6069 26.5626 25.621ZM36.9158 27.4354C37.1669 27.2906 36.7773 27.8317 36.9158 27.4354Z" fill="#FCCC44" />
        <path clipRule="evenodd" d="M52.7048 23.6572C51.9246 27.3826 51.0718 31.2817 50.3385 34.9825C52.4455 37.638 52.6497 33.305 53.0183 32.0798C53.6139 29.5189 54.3194 27.5854 54.3941 24.934C54.5523 24.029 53.4888 23.4812 52.7048 23.6572ZM55.1221 26.5787C55.2182 26.6505 55.0562 26.9604 55.1221 26.5787ZM52.6641 34.9324C52.7655 35.1507 52.7655 34.7139 52.6641 34.9324Z" fill="#62777F" />
        <path clipRule="evenodd" d="M54.0867 24.0791C54.7442 27.7711 52.5665 32.2564 51.8543 35.7375C53.4715 34.5475 54.721 29.148 55.0403 27.0346C55.1227 26.7929 55.224 26.1847 55.246 26.1627C55.3477 25.6497 56.2948 24.7805 56.3467 24.2212C56.8981 23.8321 53.6367 23.7697 54.0867 24.0791ZM52.7458 34.9324C52.6442 35.1507 52.6442 34.7139 52.7458 34.9324Z" fill="#4E5E67" />
        <path clipRule="evenodd" d="M26.6174 25.6825C25.7057 26.5954 26.0479 26.3725 26.7264 25.6134L26.6174 25.6825ZM36.4787 26.1346C35.4226 27.7216 31.614 29.0487 31.1344 29.1516C33.4254 28.7224 35.5609 27.2971 37.0635 25.6277C36.8247 25.7341 36.6829 25.984 36.4787 26.1346ZM25.991 26.6499C26.5603 28.0187 28.6301 28.928 29.6359 29.1401C28.2627 28.6978 26.6464 27.9132 25.991 26.6499ZM36.8338 27.4415C36.5464 27.7808 35.5228 28.2882 34.9831 28.7862C33.8256 29.6399 32.6282 30.4333 31.4839 31.3084C32.2125 31.2771 34.3477 29.6821 33.2531 31.3005C34.1807 32.8969 36.2001 34.0069 38.0414 33.9056C40.4731 33.5238 42.7154 32.1794 44.3274 30.3097C42.3706 32.2459 39.7837 34.0682 36.9211 33.8171C35.5357 33.4972 31.7499 31.5416 34.2823 30.1708C35.1753 29.4363 36.7149 29.0517 36.8892 27.7608C36.8526 27.5997 37.1528 27.4424 36.8338 27.4415ZM29.9025 29.2354C30.8238 29.3558 30.8238 29.1152 29.9025 29.2354ZM44.2588 31.4399C40.6028 33.987 36.9999 36.6337 33.3756 39.2265C29.2682 42.1661 25.1783 45.1166 21.0721 48.0539C22.616 47.5333 24.1629 46.5167 25.6966 45.8145C27.8089 44.6971 30.036 43.8144 32.0124 42.457C35.92 40.1566 40.0526 37.9649 43.0582 34.4455C43.7142 33.6762 44.3719 32.4378 44.4012 31.6049C44.3066 31.6315 44.3783 31.2718 44.2588 31.4399ZM31.8193 42.9C31.1616 43.6433 30.8944 44.1744 31.5771 43.2293C31.565 43.3389 32.1311 42.6425 31.8193 42.9ZM41.826 43.2557C40.0934 45.0826 37.5308 46.4004 35.1264 46.4892C37.9061 46.5094 40.4139 44.8594 42.2971 42.9129C42.1734 42.7635 41.923 43.2609 41.826 43.2557ZM42.3554 43.8299C36.5344 48.0674 30.5124 52.4628 24.6718 56.6851C25.5917 56.9736 27.5953 57.109 28.5097 55.931C30.455 54.5886 32.642 53.6016 34.5938 52.241C37.42 50.407 40.4461 48.4025 42.0513 45.3202C42.1277 44.9068 42.6958 44.1633 42.3554 43.8299ZM31.2774 44.0988C31.5475 45.2391 34.9242 46.5478 34.558 46.2973C33.3129 45.8607 32.0777 45.1805 31.2774 44.0988Z" fill="#DC9624" />
      </g>
      <defs>
        <linearGradient id="paint0_linear_514_21" x1="0" y1="75" x2="75" y2="0" gradientUnits="userSpaceOnUse">
          <stop stop-color="#DB7093" />
          <stop offset="1" stop-color="#F3B661" />
        </linearGradient>
        <clipPath id="clip0_514_21">
          <rect width="75" height="75" fill="white" />
        </clipPath>
      </defs>
    </svg>